<?xml version="1.0" standalone="no"?>
<!DOCTYPE svg PUBLIC "-//W3C//DTD SVG 20010904//EN"
 "http://www.w3.org/TR/2001/REC-SVG-20010904/DTD/svg10.dtd">
<svg version="1.0" xmlns="http://www.w3.org/2000/svg"
 width="1032.000000pt" height="228.000000pt" viewBox="0 0 1032.000000 228.000000"
 preserveAspectRatio="xMidYMid meet">

<g transform="translate(0.000000,228.000000) scale(0.100000,-0.100000)"
fill="#000000" stroke="none">
<path d="M429 2074 c-104 -31 -193 -122 -224 -227 -9 -32 -15 -91 -15 -161 l0
-111 23 40 c12 22 38 50 56 62 33 23 39 23 327 23 173 0 314 4 344 11 72 15
137 63 173 128 26 46 31 66 35 152 l5 99 -339 -1 c-264 0 -349 -4 -385 -15z"/>
<path d="M3900 1011 c0 -728 2 -809 16 -815 30 -11 190 -6 207 6 16 12 17 70
15 813 l-3 800 -117 3 -118 3 0 -810z"/>
<path d="M4462 1757 c-9 -11 -12 -191 -10 -783 l3 -769 315 0 c359 0 381 3
535 79 198 98 334 264 397 482 32 112 32 314 -1 429 -76 273 -278 471 -556
546 -71 19 -113 22 -375 26 -252 4 -298 3 -308 -10z m639 -246 c159 -51 294
-180 351 -338 32 -88 37 -260 9 -350 -56 -187 -206 -330 -396 -378 -40 -10
-109 -15 -217 -15 l-158 0 0 556 0 557 173 -5 c138 -5 185 -10 238 -27z"/>
<path d="M7382 1716 c-57 -23 -108 -49 -113 -57 -5 -8 -9 -87 -9 -176 l0 -163
-68 0 c-40 0 -73 -5 -80 -12 -17 -17 -16 -232 1 -246 7 -6 44 -12 82 -14 l70
-3 3 -419 c2 -321 5 -422 15 -428 20 -13 241 -10 255 4 9 9 12 118 12 430 l0
417 148 3 147 3 3 124 c2 93 -1 126 -10 133 -7 4 -75 8 -150 8 l-138 0 -2 218
-3 217 -30 2 c-16 1 -77 -18 -133 -41z"/>
<path d="M328 1636 c-88 -31 -136 -91 -145 -178 -7 -73 10 -121 61 -172 89
-89 209 -87 299 5 54 56 59 52 19 -12 -68 -106 -161 -160 -289 -167 l-83 -5 0
-453 0 -454 80 0 c101 0 172 25 240 87 93 84 95 91 96 373 1 343 -1 340 239
340 111 0 153 4 175 15 42 22 70 82 70 150 l0 55 -240 0 -240 0 -2 68 c-5 223
-6 228 -63 291 -37 40 -105 71 -154 71 -14 -1 -43 -7 -63 -14z"/>
<path d="M1682 1336 c-203 -50 -374 -221 -428 -427 -23 -85 -22 -227 0 -304
42 -143 128 -262 249 -343 106 -70 196 -97 327 -97 133 0 219 25 324 96 61 40
76 55 76 75 0 28 -103 174 -123 174 -6 0 -49 -19 -95 -42 -68 -35 -96 -43
-152 -46 -88 -5 -154 16 -216 71 -43 38 -104 119 -104 139 0 4 171 8 380 8
409 0 419 1 454 52 21 29 21 141 1 227 -47 199 -215 371 -406 416 -77 18 -214
18 -287 1z m263 -285 c70 -31 125 -97 150 -178 l6 -23 -285 0 c-191 0 -286 3
-286 10 0 18 37 85 65 118 77 91 234 124 350 73z"/>
<path d="M2976 1334 c-129 -31 -254 -119 -337 -237 -133 -189 -140 -457 -17
-650 166 -262 494 -359 764 -226 75 37 144 94 144 118 0 21 -97 160 -116 168
-8 3 -53 -14 -100 -38 -70 -36 -97 -44 -154 -47 -88 -5 -154 16 -216 71 -43
38 -104 119 -104 139 0 4 171 8 380 8 319 0 386 2 410 15 47 25 60 52 60 130
0 261 -191 503 -438 554 -71 15 -204 12 -276 -5z m269 -284 c22 -9 55 -33 74
-51 35 -35 84 -126 75 -141 -8 -12 -564 -10 -564 2 0 22 49 106 77 131 91 84
228 108 338 59z"/>
<path d="M6240 1335 c-129 -26 -246 -81 -256 -120 -7 -30 63 -169 88 -173 10
-2 48 9 85 23 140 57 300 67 382 26 77 -40 131 -140 120 -221 l-4 -25 -255 -5
c-211 -5 -263 -9 -304 -24 -146 -53 -206 -140 -206 -296 0 -88 15 -140 61
-206 132 -193 525 -207 706 -25 18 17 34 31 37 31 2 0 8 -25 11 -55 9 -69 19
-75 120 -75 126 0 115 -38 115 395 0 235 -4 394 -11 427 -34 161 -159 280
-341 323 -77 18 -258 18 -348 0z m415 -732 c-13 -95 -87 -176 -185 -203 -97
-27 -217 -3 -269 53 -31 34 -40 107 -17 143 31 47 64 53 280 54 l198 0 -7 -47z"/>
<path d="M8336 1334 c-90 -22 -193 -81 -267 -154 -72 -72 -116 -141 -150 -240
-29 -86 -32 -255 -5 -345 89 -300 408 -490 705 -420 119 28 271 121 271 165 0
22 -107 170 -123 170 -7 0 -50 -19 -96 -43 -79 -40 -88 -42 -170 -42 -101 0
-155 21 -221 88 -35 35 -80 103 -80 122 0 3 172 5 383 5 364 0 384 1 415 20
18 11 37 32 42 46 16 41 12 135 -10 218 -52 206 -204 360 -405 411 -73 18
-210 18 -289 -1z m264 -280 c19 -8 52 -32 74 -52 38 -37 89 -128 80 -144 -8
-12 -564 -10 -564 2 0 47 70 137 135 176 77 45 192 52 275 18z"/>
<path d="M9517 1299 c-93 -22 -186 -94 -223 -174 -19 -39 -24 -67 -24 -130 0
-97 26 -161 88 -217 57 -51 100 -71 252 -117 157 -48 202 -69 214 -103 25 -70
-31 -108 -160 -108 -88 0 -171 19 -263 61 -36 16 -74 28 -85 27 -25 -4 -119
-168 -110 -192 8 -22 132 -80 241 -112 121 -36 293 -39 399 -6 92 28 161 76
199 137 28 46 30 54 30 154 0 123 -14 160 -87 227 -57 53 -129 86 -276 128
-181 52 -216 77 -193 139 28 74 190 75 350 1 30 -13 61 -22 70 -19 21 6 113
161 109 183 -4 24 -137 88 -232 112 -84 21 -228 26 -299 9z"/>
</g>
</svg>
